<?xml version="1.0" encoding="UTF-8"?>
<!DOCTYPE svg PUBLIC "-//W3C//DTD SVG 1.1//EN" "http://www.w3.org/Graphics/SVG/1.1/DTD/svg11.dtd">
<!-- Creator: CorelDRAW 2020 (64 Bit) -->
<svg xmlns="http://www.w3.org/2000/svg" xml:space="preserve" width="2000px" height="2000px" version="1.1" style="shape-rendering:geometricPrecision; text-rendering:geometricPrecision; image-rendering:optimizeQuality; fill-rule:evenodd; clip-rule:evenodd"
viewBox="0 0 2000 2000"
 xmlns:xlink="http://www.w3.org/1999/xlink"
 xmlns:xodm="http://www.corel.com/coreldraw/odm/2003">
 <defs>
  <style type="text/css">
   <![CDATA[
    .fil0 {fill:white}
    .fil1 {fill:white;fill-rule:nonzero}
   ]]>
  </style>
 </defs>
 <g id="Camada_x0020_1">
  <metadata id="CorelCorpID_0Corel-Layer"/>
  <g id="_1690531454464">
   <path class="fil0" d="M560.29 1205.47c-238.94,-2.56 -431.79,-181.46 -431.79,-401.81 0,-220.36 192.85,-399.26 431.79,-401.82l0 200.94c-118.26,2.54 -213.29,91.5 -213.29,200.88 0,109.37 95.03,198.33 213.29,200.88l0 200.93z"/>
   <polygon class="fil0" points="962.92,401.84 1602.84,401.84 1602.84,602.78 962.92,602.78 "/>
   <polygon class="fil0" points="1092.99,530.72 1299.91,530.72 1299.91,1100.47 1092.99,1100.47 "/>
   <polygon class="fil1" points="1530.98,290.08 1871.5,506.76 1528.91,714.53 "/>
   <path class="fil0" d="M1474.02 1336.44c-14.75,207.71 -310.14,373.48 -672.45,373.48 -371.73,0 -673.07,-174.5 -673.07,-389.76 0,-11.69 0.94,-23.26 2.68,-34.69 170.09,92.29 432.73,151.49 727.48,151.49 236.08,0 451.53,-37.98 615.36,-100.52z"/>
   <path class="fil0" d="M560.33 401.84c-60.93,0 -110.33,44.98 -110.33,100.47 0,55.49 49.4,100.47 110.33,100.47 60.93,0 110.33,-44.98 110.33,-100.47 0,-55.49 -49.4,-100.47 -110.33,-100.47z"/>
   <path class="fil0" d="M560.29 1004.54c-60.93,0 -110.33,44.98 -110.33,100.46 0,55.49 49.4,100.47 110.33,100.47 60.94,0 110.33,-44.98 110.33,-100.47 0,-55.48 -49.39,-100.46 -110.33,-100.46z"/>
   <path class="fil0" d="M1194.87 990.03c-56.81,0 -102.85,44.98 -102.85,100.47 0,55.49 46.04,100.47 102.85,100.47 56.8,0 102.84,-44.98 102.84,-100.47 0,-55.49 -46.04,-100.47 -102.84,-100.47z"/>
   <path class="fil0" d="M970.08 401.84c-60.93,0 -110.32,44.98 -110.32,100.47 0,55.49 49.39,100.47 110.32,100.47 60.94,0 110.33,-44.98 110.33,-100.47 0,-55.49 -49.39,-100.47 -110.33,-100.47z"/>
  </g>
 </g>
</svg>
